<mxfile host="app.diagrams.net" agent="Mozilla/5.0 (Macintosh; Intel Mac OS X 10_15_7) AppleWebKit/537.36 (KHTML, like Gecko) Chrome/128.0.0.0 Safari/537.36" version="24.7.8">
  <diagram name="Page-1" id="kx8JvavBEpA-MAw8KZ7Q">
    <mxGraphModel dx="1306" dy="678" grid="1" gridSize="10" guides="1" tooltips="1" connect="1" arrows="1" fold="1" page="1" pageScale="1" pageWidth="827" pageHeight="1169" math="0" shadow="0">
      <root>
        <mxCell id="0" />
        <mxCell id="1" parent="0" />
        <mxCell id="UaWA75HkZml6zCzLFoGM-1" value="" style="ellipse;whiteSpace=wrap;html=1;aspect=fixed;" vertex="1" parent="1">
          <mxGeometry x="40" y="120" width="80" height="80" as="geometry" />
        </mxCell>
        <mxCell id="UaWA75HkZml6zCzLFoGM-2" value="&lt;font style=&quot;font-size: 36px;&quot; face=&quot;Comic Sans MS&quot;&gt;Kapitel 1&amp;nbsp;&amp;nbsp;&lt;/font&gt;" style="text;html=1;align=center;verticalAlign=middle;whiteSpace=wrap;rounded=0;" vertex="1" parent="1">
          <mxGeometry x="252" y="20" width="290" height="130" as="geometry" />
        </mxCell>
        <mxCell id="UaWA75HkZml6zCzLFoGM-3" value="&lt;font face=&quot;Comic Sans MS&quot; style=&quot;font-size: 16px;&quot;&gt;Talsorter &lt;br&gt;s. 8-13&lt;/font&gt;" style="text;html=1;align=left;verticalAlign=middle;whiteSpace=wrap;rounded=0;" vertex="1" parent="1">
          <mxGeometry x="130" y="145" width="180" height="30" as="geometry" />
        </mxCell>
        <mxCell id="UaWA75HkZml6zCzLFoGM-4" value="" style="ellipse;whiteSpace=wrap;html=1;aspect=fixed;" vertex="1" parent="1">
          <mxGeometry x="279" y="120" width="80" height="80" as="geometry" />
        </mxCell>
        <mxCell id="UaWA75HkZml6zCzLFoGM-5" value="&lt;font face=&quot;Comic Sans MS&quot; style=&quot;font-size: 16px;&quot;&gt;Addition och subtraktion&amp;nbsp;&lt;br&gt;s. 12-15&lt;/font&gt;" style="text;html=1;align=left;verticalAlign=middle;whiteSpace=wrap;rounded=0;" vertex="1" parent="1">
          <mxGeometry x="369" y="145" width="180" height="30" as="geometry" />
        </mxCell>
        <mxCell id="UaWA75HkZml6zCzLFoGM-6" value="" style="ellipse;whiteSpace=wrap;html=1;aspect=fixed;" vertex="1" parent="1">
          <mxGeometry x="520" y="120" width="80" height="80" as="geometry" />
        </mxCell>
        <mxCell id="UaWA75HkZml6zCzLFoGM-7" value="&lt;font face=&quot;Comic Sans MS&quot; style=&quot;font-size: 16px;&quot;&gt;Addition och subtraktion &lt;br&gt;s 16-19&lt;/font&gt;" style="text;html=1;align=left;verticalAlign=middle;whiteSpace=wrap;rounded=0;" vertex="1" parent="1">
          <mxGeometry x="610" y="145" width="180" height="30" as="geometry" />
        </mxCell>
        <mxCell id="UaWA75HkZml6zCzLFoGM-8" value="" style="ellipse;whiteSpace=wrap;html=1;aspect=fixed;" vertex="1" parent="1">
          <mxGeometry x="40" y="220" width="80" height="80" as="geometry" />
        </mxCell>
        <mxCell id="UaWA75HkZml6zCzLFoGM-9" value="&lt;font face=&quot;Comic Sans MS&quot;&gt;&lt;span style=&quot;font-size: 16px;&quot;&gt;Tallinjer&lt;br&gt;s. 20-23&lt;/span&gt;&lt;/font&gt;" style="text;html=1;align=left;verticalAlign=middle;whiteSpace=wrap;rounded=0;" vertex="1" parent="1">
          <mxGeometry x="130" y="245" width="180" height="30" as="geometry" />
        </mxCell>
        <mxCell id="UaWA75HkZml6zCzLFoGM-10" value="" style="ellipse;whiteSpace=wrap;html=1;aspect=fixed;" vertex="1" parent="1">
          <mxGeometry x="279" y="220" width="80" height="80" as="geometry" />
        </mxCell>
        <mxCell id="UaWA75HkZml6zCzLFoGM-11" value="&lt;font face=&quot;Comic Sans MS&quot;&gt;&lt;span style=&quot;font-size: 16px;&quot;&gt;Tema: Höjdare&lt;br&gt;s. 24-27&lt;/span&gt;&lt;/font&gt;" style="text;html=1;align=left;verticalAlign=middle;whiteSpace=wrap;rounded=0;" vertex="1" parent="1">
          <mxGeometry x="369" y="245" width="180" height="30" as="geometry" />
        </mxCell>
        <mxCell id="UaWA75HkZml6zCzLFoGM-12" value="" style="ellipse;whiteSpace=wrap;html=1;aspect=fixed;" vertex="1" parent="1">
          <mxGeometry x="520" y="220" width="80" height="80" as="geometry" />
        </mxCell>
        <mxCell id="UaWA75HkZml6zCzLFoGM-13" value="&lt;font face=&quot;Comic Sans MS&quot;&gt;&lt;span style=&quot;font-size: 16px;&quot;&gt;Vikt Hekto och gram&lt;br&gt;s. 28-31&lt;/span&gt;&lt;/font&gt;" style="text;html=1;align=left;verticalAlign=middle;whiteSpace=wrap;rounded=0;" vertex="1" parent="1">
          <mxGeometry x="610" y="245" width="180" height="30" as="geometry" />
        </mxCell>
        <mxCell id="UaWA75HkZml6zCzLFoGM-14" value="" style="ellipse;whiteSpace=wrap;html=1;aspect=fixed;" vertex="1" parent="1">
          <mxGeometry x="39" y="320" width="80" height="80" as="geometry" />
        </mxCell>
        <mxCell id="UaWA75HkZml6zCzLFoGM-15" value="&lt;font face=&quot;Comic Sans MS&quot; style=&quot;font-size: 16px;&quot;&gt;Andra talsystem&lt;br&gt;s. 32-35&lt;/font&gt;" style="text;html=1;align=left;verticalAlign=middle;whiteSpace=wrap;rounded=0;" vertex="1" parent="1">
          <mxGeometry x="129" y="345" width="180" height="30" as="geometry" />
        </mxCell>
        <mxCell id="UaWA75HkZml6zCzLFoGM-16" value="" style="ellipse;whiteSpace=wrap;html=1;aspect=fixed;" vertex="1" parent="1">
          <mxGeometry x="278" y="320" width="80" height="80" as="geometry" />
        </mxCell>
        <mxCell id="UaWA75HkZml6zCzLFoGM-17" value="&lt;font face=&quot;Comic Sans MS&quot;&gt;&lt;span style=&quot;font-size: 16px;&quot;&gt;Triumfen&lt;br&gt;s. 36-37&lt;/span&gt;&lt;/font&gt;" style="text;html=1;align=left;verticalAlign=middle;whiteSpace=wrap;rounded=0;" vertex="1" parent="1">
          <mxGeometry x="368" y="345" width="180" height="30" as="geometry" />
        </mxCell>
        <mxCell id="UaWA75HkZml6zCzLFoGM-20" value="" style="ellipse;whiteSpace=wrap;html=1;aspect=fixed;" vertex="1" parent="1">
          <mxGeometry x="41" y="480" width="80" height="80" as="geometry" />
        </mxCell>
        <mxCell id="UaWA75HkZml6zCzLFoGM-21" value="&lt;font style=&quot;font-size: 36px;&quot; face=&quot;Comic Sans MS&quot;&gt;Kapitel 2&lt;/font&gt;" style="text;html=1;align=center;verticalAlign=middle;whiteSpace=wrap;rounded=0;" vertex="1" parent="1">
          <mxGeometry x="252" y="375" width="290" height="130" as="geometry" />
        </mxCell>
        <mxCell id="UaWA75HkZml6zCzLFoGM-22" value="&lt;font face=&quot;Comic Sans MS&quot;&gt;&lt;span style=&quot;font-size: 16px;&quot;&gt;Repetera addition&amp;nbsp;&lt;br&gt;s.40-43&lt;/span&gt;&lt;/font&gt;" style="text;html=1;align=left;verticalAlign=middle;whiteSpace=wrap;rounded=0;" vertex="1" parent="1">
          <mxGeometry x="131" y="505" width="180" height="30" as="geometry" />
        </mxCell>
        <mxCell id="UaWA75HkZml6zCzLFoGM-23" value="" style="ellipse;whiteSpace=wrap;html=1;aspect=fixed;" vertex="1" parent="1">
          <mxGeometry x="280" y="480" width="80" height="80" as="geometry" />
        </mxCell>
        <mxCell id="UaWA75HkZml6zCzLFoGM-24" value="&lt;font face=&quot;Comic Sans MS&quot;&gt;&lt;span style=&quot;font-size: 16px;&quot;&gt;Addition 2 växlingar&lt;br&gt;s.44-47&lt;/span&gt;&lt;/font&gt;" style="text;html=1;align=left;verticalAlign=middle;whiteSpace=wrap;rounded=0;" vertex="1" parent="1">
          <mxGeometry x="370" y="505" width="180" height="30" as="geometry" />
        </mxCell>
        <mxCell id="UaWA75HkZml6zCzLFoGM-25" value="" style="ellipse;whiteSpace=wrap;html=1;aspect=fixed;" vertex="1" parent="1">
          <mxGeometry x="521" y="480" width="80" height="80" as="geometry" />
        </mxCell>
        <mxCell id="UaWA75HkZml6zCzLFoGM-26" value="&lt;font face=&quot;Comic Sans MS&quot;&gt;&lt;span style=&quot;font-size: 16px;&quot;&gt;Addition förenkla huvudräkning&lt;br&gt;s.48-51&lt;/span&gt;&lt;/font&gt;" style="text;html=1;align=left;verticalAlign=middle;whiteSpace=wrap;rounded=0;" vertex="1" parent="1">
          <mxGeometry x="611" y="505" width="180" height="30" as="geometry" />
        </mxCell>
        <mxCell id="UaWA75HkZml6zCzLFoGM-27" value="" style="ellipse;whiteSpace=wrap;html=1;aspect=fixed;" vertex="1" parent="1">
          <mxGeometry x="41" y="580" width="80" height="80" as="geometry" />
        </mxCell>
        <mxCell id="UaWA75HkZml6zCzLFoGM-28" value="&lt;font face=&quot;Comic Sans MS&quot;&gt;&lt;span style=&quot;font-size: 16px;&quot;&gt;Addition välj metod&lt;br&gt;s.52-55&lt;/span&gt;&lt;/font&gt;" style="text;html=1;align=left;verticalAlign=middle;whiteSpace=wrap;rounded=0;" vertex="1" parent="1">
          <mxGeometry x="131" y="605" width="180" height="30" as="geometry" />
        </mxCell>
        <mxCell id="UaWA75HkZml6zCzLFoGM-29" value="" style="ellipse;whiteSpace=wrap;html=1;aspect=fixed;" vertex="1" parent="1">
          <mxGeometry x="280" y="580" width="80" height="80" as="geometry" />
        </mxCell>
        <mxCell id="UaWA75HkZml6zCzLFoGM-30" value="&lt;font face=&quot;Comic Sans MS&quot;&gt;&lt;span style=&quot;font-size: 16px;&quot;&gt;Tema: Poängbanan&lt;br&gt;s. 56-59&lt;/span&gt;&lt;/font&gt;" style="text;html=1;align=left;verticalAlign=middle;whiteSpace=wrap;rounded=0;" vertex="1" parent="1">
          <mxGeometry x="370" y="605" width="180" height="30" as="geometry" />
        </mxCell>
        <mxCell id="UaWA75HkZml6zCzLFoGM-31" value="" style="ellipse;whiteSpace=wrap;html=1;aspect=fixed;" vertex="1" parent="1">
          <mxGeometry x="521" y="580" width="80" height="80" as="geometry" />
        </mxCell>
        <mxCell id="UaWA75HkZml6zCzLFoGM-32" value="&lt;font face=&quot;Comic Sans MS&quot;&gt;&lt;span style=&quot;font-size: 16px;&quot;&gt;Volym l, dl ml&lt;br&gt;60-63&lt;/span&gt;&lt;/font&gt;" style="text;html=1;align=left;verticalAlign=middle;whiteSpace=wrap;rounded=0;" vertex="1" parent="1">
          <mxGeometry x="611" y="605" width="180" height="30" as="geometry" />
        </mxCell>
        <mxCell id="UaWA75HkZml6zCzLFoGM-33" value="" style="ellipse;whiteSpace=wrap;html=1;aspect=fixed;" vertex="1" parent="1">
          <mxGeometry x="40" y="680" width="80" height="80" as="geometry" />
        </mxCell>
        <mxCell id="UaWA75HkZml6zCzLFoGM-34" value="&lt;font face=&quot;Comic Sans MS&quot;&gt;&lt;span style=&quot;font-size: 16px;&quot;&gt;Proportionella &lt;br&gt;samband&lt;br&gt;s.64-67&lt;/span&gt;&lt;/font&gt;" style="text;html=1;align=left;verticalAlign=middle;whiteSpace=wrap;rounded=0;" vertex="1" parent="1">
          <mxGeometry x="130" y="705" width="180" height="30" as="geometry" />
        </mxCell>
        <mxCell id="UaWA75HkZml6zCzLFoGM-35" value="" style="ellipse;whiteSpace=wrap;html=1;aspect=fixed;" vertex="1" parent="1">
          <mxGeometry x="279" y="680" width="80" height="80" as="geometry" />
        </mxCell>
        <mxCell id="UaWA75HkZml6zCzLFoGM-36" value="&lt;font face=&quot;Comic Sans MS&quot;&gt;&lt;span style=&quot;font-size: 16px;&quot;&gt;Triumfen&lt;br&gt;s. 68-69&lt;/span&gt;&lt;/font&gt;" style="text;html=1;align=left;verticalAlign=middle;whiteSpace=wrap;rounded=0;" vertex="1" parent="1">
          <mxGeometry x="369" y="705" width="180" height="30" as="geometry" />
        </mxCell>
        <mxCell id="UaWA75HkZml6zCzLFoGM-37" value="" style="ellipse;whiteSpace=wrap;html=1;aspect=fixed;" vertex="1" parent="1">
          <mxGeometry x="42" y="840" width="80" height="80" as="geometry" />
        </mxCell>
        <mxCell id="UaWA75HkZml6zCzLFoGM-38" value="&lt;font style=&quot;font-size: 36px;&quot; face=&quot;Comic Sans MS&quot;&gt;Kapitel 3&lt;/font&gt;" style="text;html=1;align=center;verticalAlign=middle;whiteSpace=wrap;rounded=0;" vertex="1" parent="1">
          <mxGeometry x="252" y="730" width="290" height="130" as="geometry" />
        </mxCell>
        <mxCell id="UaWA75HkZml6zCzLFoGM-39" value="&lt;font face=&quot;Comic Sans MS&quot;&gt;&lt;span style=&quot;font-size: 16px;&quot;&gt;6:ans tabell&lt;br&gt;s. 72-75&lt;/span&gt;&lt;/font&gt;" style="text;html=1;align=left;verticalAlign=middle;whiteSpace=wrap;rounded=0;" vertex="1" parent="1">
          <mxGeometry x="132" y="865" width="180" height="30" as="geometry" />
        </mxCell>
        <mxCell id="UaWA75HkZml6zCzLFoGM-40" value="" style="ellipse;whiteSpace=wrap;html=1;aspect=fixed;" vertex="1" parent="1">
          <mxGeometry x="281" y="840" width="80" height="80" as="geometry" />
        </mxCell>
        <mxCell id="UaWA75HkZml6zCzLFoGM-41" value="&lt;font face=&quot;Comic Sans MS&quot;&gt;&lt;span style=&quot;font-size: 16px;&quot;&gt;8:ans tabell&lt;br&gt;s.76-79&lt;/span&gt;&lt;/font&gt;" style="text;html=1;align=left;verticalAlign=middle;whiteSpace=wrap;rounded=0;" vertex="1" parent="1">
          <mxGeometry x="371" y="865" width="180" height="30" as="geometry" />
        </mxCell>
        <mxCell id="UaWA75HkZml6zCzLFoGM-42" value="" style="ellipse;whiteSpace=wrap;html=1;aspect=fixed;" vertex="1" parent="1">
          <mxGeometry x="522" y="840" width="80" height="80" as="geometry" />
        </mxCell>
        <mxCell id="UaWA75HkZml6zCzLFoGM-43" value="&lt;font face=&quot;Comic Sans MS&quot;&gt;&lt;span style=&quot;font-size: 16px;&quot;&gt;Division med 3 och 6&lt;br&gt;s. 80&lt;/span&gt;&lt;/font&gt;" style="text;html=1;align=left;verticalAlign=middle;whiteSpace=wrap;rounded=0;" vertex="1" parent="1">
          <mxGeometry x="612" y="865" width="180" height="30" as="geometry" />
        </mxCell>
        <mxCell id="UaWA75HkZml6zCzLFoGM-44" value="" style="ellipse;whiteSpace=wrap;html=1;aspect=fixed;" vertex="1" parent="1">
          <mxGeometry x="42" y="940" width="80" height="80" as="geometry" />
        </mxCell>
        <mxCell id="UaWA75HkZml6zCzLFoGM-45" value="&lt;font face=&quot;Comic Sans MS&quot;&gt;&lt;span style=&quot;font-size: 16px;&quot;&gt;Division med &lt;br&gt;4 och 8&lt;br&gt;s.81-83&lt;/span&gt;&lt;/font&gt;" style="text;html=1;align=left;verticalAlign=middle;whiteSpace=wrap;rounded=0;" vertex="1" parent="1">
          <mxGeometry x="132" y="965" width="180" height="30" as="geometry" />
        </mxCell>
        <mxCell id="UaWA75HkZml6zCzLFoGM-46" value="" style="ellipse;whiteSpace=wrap;html=1;aspect=fixed;" vertex="1" parent="1">
          <mxGeometry x="281" y="940" width="80" height="80" as="geometry" />
        </mxCell>
        <mxCell id="UaWA75HkZml6zCzLFoGM-47" value="&lt;font face=&quot;Comic Sans MS&quot;&gt;&lt;span style=&quot;font-size: 16px;&quot;&gt;Bråk - tal i bråkform&lt;br&gt;s. 84-87&lt;/span&gt;&lt;/font&gt;" style="text;html=1;align=left;verticalAlign=middle;whiteSpace=wrap;rounded=0;" vertex="1" parent="1">
          <mxGeometry x="371" y="965" width="180" height="30" as="geometry" />
        </mxCell>
        <mxCell id="UaWA75HkZml6zCzLFoGM-48" value="" style="ellipse;whiteSpace=wrap;html=1;aspect=fixed;" vertex="1" parent="1">
          <mxGeometry x="522" y="940" width="80" height="80" as="geometry" />
        </mxCell>
        <mxCell id="UaWA75HkZml6zCzLFoGM-49" value="&lt;font face=&quot;Comic Sans MS&quot;&gt;&lt;span style=&quot;font-size: 16px;&quot;&gt;Bråk - jämföra&lt;br&gt;s.88-91&lt;/span&gt;&lt;/font&gt;" style="text;html=1;align=left;verticalAlign=middle;whiteSpace=wrap;rounded=0;" vertex="1" parent="1">
          <mxGeometry x="612" y="965" width="180" height="30" as="geometry" />
        </mxCell>
        <mxCell id="UaWA75HkZml6zCzLFoGM-50" value="" style="ellipse;whiteSpace=wrap;html=1;aspect=fixed;" vertex="1" parent="1">
          <mxGeometry x="41" y="1040" width="80" height="80" as="geometry" />
        </mxCell>
        <mxCell id="UaWA75HkZml6zCzLFoGM-51" value="&lt;font face=&quot;Comic Sans MS&quot;&gt;&lt;span style=&quot;font-size: 16px;&quot;&gt;Tema: Salong&amp;nbsp;&lt;br&gt;Rubb och stubb&lt;br&gt;s.92-95&lt;/span&gt;&lt;/font&gt;" style="text;html=1;align=left;verticalAlign=middle;whiteSpace=wrap;rounded=0;" vertex="1" parent="1">
          <mxGeometry x="131" y="1065" width="180" height="30" as="geometry" />
        </mxCell>
        <mxCell id="UaWA75HkZml6zCzLFoGM-52" value="" style="ellipse;whiteSpace=wrap;html=1;aspect=fixed;" vertex="1" parent="1">
          <mxGeometry x="280" y="1040" width="80" height="80" as="geometry" />
        </mxCell>
        <mxCell id="UaWA75HkZml6zCzLFoGM-53" value="&lt;font face=&quot;Comic Sans MS&quot;&gt;&lt;span style=&quot;font-size: 16px;&quot;&gt;Sannolokhet&lt;br&gt;s.96-99&lt;/span&gt;&lt;/font&gt;" style="text;html=1;align=left;verticalAlign=middle;whiteSpace=wrap;rounded=0;" vertex="1" parent="1">
          <mxGeometry x="370" y="1065" width="180" height="30" as="geometry" />
        </mxCell>
        <mxCell id="UaWA75HkZml6zCzLFoGM-54" value="" style="ellipse;whiteSpace=wrap;html=1;aspect=fixed;" vertex="1" parent="1">
          <mxGeometry x="522" y="1040" width="80" height="80" as="geometry" />
        </mxCell>
        <mxCell id="UaWA75HkZml6zCzLFoGM-55" value="&lt;font face=&quot;Comic Sans MS&quot;&gt;&lt;span style=&quot;font-size: 16px;&quot;&gt;Triumfen&lt;br&gt;s. 100-101&lt;/span&gt;&lt;/font&gt;" style="text;html=1;align=left;verticalAlign=middle;whiteSpace=wrap;rounded=0;" vertex="1" parent="1">
          <mxGeometry x="612" y="1065" width="180" height="30" as="geometry" />
        </mxCell>
      </root>
    </mxGraphModel>
  </diagram>
</mxfile>
